<?xml version='1.0' encoding='UTF-8' standalone='no'?>
<!-- Created with Fritzing (http://www.fritzing.org/) -->
<svg xmlns="http://www.w3.org/2000/svg"  xmlns:svg="http://www.w3.org/2000/svg" height="2.12598in" baseProfile="tiny" version="1.2" width="3.93701in" x="0in" y="0in" viewBox="0 0 283.465 153.071">
 <g partID="57710">
  <g  id="board">
   <rect  stroke="black" id="boardoutline" height="152.495" width="282.889" fill="none" stroke-width="0.5" x="0.288" y="0.288" fill-opacity="0.5"/>
  </g>
 </g>
 <g partID="68840">
  <g transform="translate(1.353,0.976152)">
   <g  id="copper0">
    <circle  stroke="black" id="connector1pad" cx="215.998" cy="144" r="2" fill="black" stroke-width="1.97"/>
    <circle  stroke="black" id="connector257pad" cx="100.798" cy="144" r="2" fill="black" stroke-width="1.97"/>
    <circle  stroke="black" id="connector2pad" cx="223.196" cy="144" r="2" fill="black" stroke-width="1.97"/>
    <circle  stroke="black" id="connector3pad" cx="230.398" cy="144" r="2" fill="black" stroke-width="1.97"/>
    <circle  stroke="black" id="connector4pad" cx="237.597" cy="144" r="2" fill="black" stroke-width="1.97"/>
    <circle  stroke="black" id="connector5pad" cx="244.798" cy="144" r="2" fill="black" stroke-width="1.97"/>
    <circle  stroke="black" id="connector353pad" cx="266.398" cy="43.2" r="2" fill="black" stroke-width="1.97"/>
    <circle  stroke="black" id="connector6pad" cx="251.998" cy="144" r="2" fill="black" stroke-width="1.97"/>
    <circle  stroke="black" id="connector7pad" cx="259.196" cy="144" r="2" fill="black" stroke-width="1.97"/>
    <circle  stroke="black" id="connector241pad" cx="103.677" cy="7.2" r="2" fill="black" stroke-width="1.97"/>
    <circle  stroke="black" id="connector8pad" cx="143.998" cy="144" r="2" fill="black" stroke-width="1.97"/>
    <circle  stroke="black" id="connector9pad" cx="151.196" cy="144" r="2" fill="black" stroke-width="1.97"/>
    <circle  stroke="black" id="connector10pad" cx="158.398" cy="144" r="2" fill="black" stroke-width="1.97"/>
    <circle  stroke="black" id="connector11pad" cx="165.597" cy="144" r="2" fill="black" stroke-width="1.97"/>
    <circle  stroke="black" id="connector369pad" cx="266.398" cy="100.8" r="2" fill="black" stroke-width="1.97"/>
    <circle  stroke="black" id="connector12pad" cx="172.798" cy="144" r="2" fill="black" stroke-width="1.97"/>
    <circle  stroke="black" id="connector13pad" cx="179.998" cy="144" r="2" fill="black" stroke-width="1.97"/>
    <circle  stroke="black" id="connector14pad" cx="187.196" cy="144" r="2" fill="black" stroke-width="1.97"/>
    <circle  stroke="black" id="connector15pad" cx="194.398" cy="144" r="2" fill="black" stroke-width="1.97"/>
    <circle  stroke="black" id="connector265pad" cx="158.398" cy="7.2" r="2" fill="black" stroke-width="1.97"/>
    <circle  stroke="black" id="connector345pad" cx="266.398" cy="14.4" r="2" fill="black" stroke-width="1.97"/>
    <circle  stroke="black" id="connector361pad" cx="266.398" cy="72" r="2" fill="black" stroke-width="1.97"/>
    <circle  stroke="black" id="connector377pad" cx="266.398" cy="129.6" r="2" fill="black" stroke-width="1.97"/>
    <circle  stroke="black" id="connector237pad" cx="74.878" cy="7.2" r="2" fill="black" stroke-width="1.97"/>
    <circle  stroke="black" id="connector261pad" cx="129.597" cy="144" r="2" fill="black" stroke-width="1.97"/>
    <circle  stroke="black" id="connector269pad" cx="129.597" cy="7.2" r="2" fill="black" stroke-width="1.97"/>
    <circle  stroke="black" id="connector349pad" cx="266.398" cy="28.8" r="2" fill="black" stroke-width="1.97"/>
    <circle  stroke="black" id="connector357pad" cx="266.398" cy="57.6" r="2" fill="black" stroke-width="1.97"/>
    <circle  stroke="black" id="connector365pad" cx="266.398" cy="86.4" r="2" fill="black" stroke-width="1.97"/>
    <circle  stroke="black" id="connector46pad" cx="244.798" cy="7.2" r="2" fill="black" stroke-width="1.97"/>
    <circle  stroke="black" id="connector373pad" cx="266.398" cy="115.2" r="2" fill="black" stroke-width="1.97"/>
    <circle  stroke="black" id="connector47pad" cx="237.597" cy="7.2" r="2" fill="black" stroke-width="1.97"/>
    <circle  stroke="black" id="connector48pad" cx="230.398" cy="7.2" r="2" fill="black" stroke-width="1.97"/>
    <circle  stroke="black" id="connector49pad" cx="223.196" cy="7.2" r="2" fill="black" stroke-width="1.97"/>
    <circle  stroke="black" id="connector50pad" cx="215.998" cy="7.2" r="2" fill="black" stroke-width="1.97"/>
    <circle  stroke="black" id="connector51pad" cx="208.798" cy="7.2" r="2" fill="black" stroke-width="1.97"/>
    <circle  stroke="black" id="connector52pad" cx="201.597" cy="7.2" r="2" fill="black" stroke-width="1.97"/>
    <circle  stroke="black" id="connector53pad" cx="194.398" cy="7.2" r="2" fill="black" stroke-width="1.97"/>
    <circle  stroke="black" id="connector235pad" cx="60.477" cy="7.2" r="2" fill="black" stroke-width="1.97"/>
    <circle  stroke="black" id="connector239pad" cx="89.277" cy="7.2" r="2" fill="black" stroke-width="1.97"/>
    <circle  stroke="black" id="connector243pad" cx="118.077" cy="7.2" r="2" fill="black" stroke-width="1.97"/>
    <circle  stroke="black" id="connector255pad" cx="86.397" cy="144" r="2" fill="black" stroke-width="1.97"/>
    <circle  stroke="black" id="connector259pad" cx="115.197" cy="144" r="2" fill="black" stroke-width="1.97"/>
    <circle  stroke="black" id="connector263pad" cx="172.798" cy="7.2" r="2" fill="black" stroke-width="1.97"/>
    <circle  stroke="black" id="connector267pad" cx="143.998" cy="7.2" r="2" fill="black" stroke-width="1.97"/>
    <circle  stroke="black" id="connector343pad" cx="266.398" cy="7.2" r="2" fill="black" stroke-width="1.97"/>
    <circle  stroke="black" id="connector347pad" cx="266.398" cy="21.6" r="2" fill="black" stroke-width="1.97"/>
    <circle  stroke="black" id="connector351pad" cx="266.398" cy="36" r="2" fill="black" stroke-width="1.97"/>
    <circle  stroke="black" id="connector355pad" cx="266.398" cy="50.4" r="2" fill="black" stroke-width="1.97"/>
    <circle  stroke="black" id="connector359pad" cx="266.398" cy="64.8" r="2" fill="black" stroke-width="1.97"/>
    <circle  stroke="black" id="connector363pad" cx="266.398" cy="79.2" r="2" fill="black" stroke-width="1.97"/>
    <circle  stroke="black" id="connector367pad" cx="266.398" cy="93.6" r="2" fill="black" stroke-width="1.97"/>
    <circle  stroke="black" id="connector371pad" cx="266.398" cy="108" r="2" fill="black" stroke-width="1.97"/>
    <circle  stroke="black" id="connector375pad" cx="266.398" cy="122.4" r="2" fill="black" stroke-width="1.97"/>
    <circle  stroke="black" id="connector234pad" cx="53.276" cy="7.2" r="2" fill="black" stroke-width="1.97"/>
    <circle  stroke="black" id="connector236pad" cx="67.677" cy="7.2" r="2" fill="black" stroke-width="1.97"/>
    <circle  stroke="black" id="connector238pad" cx="82.077" cy="7.2" r="2" fill="black" stroke-width="1.97"/>
    <circle  stroke="black" id="connector240pad" cx="96.477" cy="7.2" r="2" fill="black" stroke-width="1.97"/>
    <circle  stroke="black" id="connector242pad" cx="110.878" cy="7.2" r="2" fill="black" stroke-width="1.97"/>
    <circle  stroke="black" id="connector254pad" cx="79.197" cy="144" r="2" fill="black" stroke-width="1.97"/>
    <circle  stroke="black" id="connector256pad" cx="93.597" cy="144" r="2" fill="black" stroke-width="1.97"/>
    <circle  stroke="black" id="connector258pad" cx="107.998" cy="144" r="2" fill="black" stroke-width="1.97"/>
    <circle  stroke="black" id="connector260pad" cx="122.397" cy="144" r="2" fill="black" stroke-width="1.97"/>
    <circle  stroke="black" id="connector262pad" cx="179.998" cy="7.2" r="2" fill="black" stroke-width="1.97"/>
    <circle  stroke="black" id="connector264pad" cx="165.597" cy="7.2" r="2" fill="black" stroke-width="1.97"/>
    <circle  stroke="black" id="connector266pad" cx="151.196" cy="7.2" r="2" fill="black" stroke-width="1.97"/>
    <circle  stroke="black" id="connector268pad" cx="136.798" cy="7.2" r="2" fill="black" stroke-width="1.97"/>
    <circle  stroke="black" id="connector344pad" cx="273.597" cy="7.2" r="2" fill="black" stroke-width="1.97"/>
    <circle  stroke="black" id="connector346pad" cx="273.597" cy="14.4" r="2" fill="black" stroke-width="1.97"/>
    <circle  stroke="black" id="connector348pad" cx="273.597" cy="21.6" r="2" fill="black" stroke-width="1.97"/>
    <circle  stroke="black" id="connector350pad" cx="273.597" cy="28.8" r="2" fill="black" stroke-width="1.97"/>
    <circle  stroke="black" id="connector352pad" cx="273.597" cy="36" r="2" fill="black" stroke-width="1.97"/>
    <circle  stroke="black" id="connector354pad" cx="273.597" cy="43.2" r="2" fill="black" stroke-width="1.97"/>
    <circle  stroke="black" id="connector356pad" cx="273.597" cy="50.4" r="2" fill="black" stroke-width="1.97"/>
    <circle  stroke="black" id="connector358pad" cx="273.597" cy="57.6" r="2" fill="black" stroke-width="1.97"/>
    <circle  stroke="black" id="connector360pad" cx="273.597" cy="64.8" r="2" fill="black" stroke-width="1.97"/>
    <circle  stroke="black" id="connector362pad" cx="273.597" cy="72" r="2" fill="black" stroke-width="1.97"/>
    <circle  stroke="black" id="connector364pad" cx="273.597" cy="79.2" r="2" fill="black" stroke-width="1.97"/>
    <circle  stroke="black" id="connector366pad" cx="273.597" cy="86.4" r="2" fill="black" stroke-width="1.97"/>
    <circle  stroke="black" id="connector368pad" cx="273.597" cy="93.6" r="2" fill="black" stroke-width="1.97"/>
    <circle  stroke="black" id="connector370pad" cx="273.597" cy="100.8" r="2" fill="black" stroke-width="1.97"/>
    <circle  stroke="black" id="connector372pad" cx="273.597" cy="108" r="2" fill="black" stroke-width="1.97"/>
    <circle  stroke="black" id="connector374pad" cx="273.597" cy="115.2" r="2" fill="black" stroke-width="1.97"/>
    <circle  stroke="black" id="connector376pad" cx="273.597" cy="122.4" r="2" fill="black" stroke-width="1.97"/>
    <circle  stroke="black" id="connector378pad" cx="273.597" cy="129.6" r="2" fill="black" stroke-width="1.97"/>
    <circle  stroke="black" id="connector0pad" cx="208.798" cy="144" r="2" fill="black" stroke-width="1.97"/>
   </g>
  </g>
 </g>
 <g partID="70690">
  <g transform="translate(192.439,69.0882)">
   <g transform="matrix(0,1,-1,0,0,0)">
    <g  id="copper0">
     <circle  stroke="black" id="connector0pad" cx="3.888" cy="11.088" r="2.052" connectorname="1" stroke-width="1.944" fill="black"/>
     <circle  stroke="black" id="connector1pad" cx="3.888" cy="3.888" r="2.052" connectorname="2" stroke-width="1.944" fill="black"/>
     <circle  stroke="black" id="connector2pad" cx="11.088" cy="11.088" r="2.052" connectorname="3" stroke-width="1.944" fill="black"/>
     <circle  stroke="black" id="connector3pad" cx="11.088" cy="3.888" r="2.052" connectorname="4" stroke-width="1.944" fill="black"/>
     <circle  stroke="black" id="connector4pad" cx="18.288" cy="11.088" r="2.052" connectorname="5" stroke-width="1.944" fill="black"/>
     <circle  stroke="black" id="connector5pad" cx="18.288" cy="3.888" r="2.052" connectorname="6" stroke-width="1.944" fill="black"/>
    </g>
   </g>
  </g>
 </g>
 <g partID="94760">
  <g transform="translate(82.7112,114.016)">
   <g transform="matrix(0,-1,1,0,0,0)">
    <g  id="copper0">
     <circle  stroke="black" id="connector0pin" cx="5.04" cy="5.04" r="2.088" fill="black" stroke-width="2.16"/>
     <circle  stroke="black" id="connector1pin" cx="5.04" cy="12.24" r="2.088" fill="black" stroke-width="2.16"/>
     <circle  stroke="black" id="connector2pin" cx="5.04" cy="19.44" r="2.088" fill="black" stroke-width="2.16"/>
     <circle  stroke="black" id="connector3pin" cx="5.04" cy="26.64" r="2.088" fill="black" stroke-width="2.16"/>
    </g>
   </g>
  </g>
 </g>
 <g partID="91130">
  <g transform="translate(82.7112,42.0162)">
   <g transform="matrix(0,-1,1,0,0,0)">
    <g  id="copper0">
     <circle  stroke="black" id="connector0pin" cx="5.04" cy="5.04" r="2.088" fill="black" stroke-width="2.16"/>
     <circle  stroke="black" id="connector1pin" cx="5.04" cy="12.24" r="2.088" fill="black" stroke-width="2.16"/>
     <circle  stroke="black" id="connector2pin" cx="5.04" cy="19.44" r="2.088" fill="black" stroke-width="2.16"/>
     <circle  stroke="black" id="connector3pin" cx="5.04" cy="26.64" r="2.088" fill="black" stroke-width="2.16"/>
    </g>
   </g>
  </g>
 </g>
 <g partID="72310">
  <g transform="translate(82.7112,99.6162)">
   <g transform="matrix(0,-1,1,0,0,0)">
    <g  id="copper0">
     <circle  stroke="black" id="connector0pin" cx="5.04" cy="5.04" r="2.088" fill="black" stroke-width="2.16"/>
     <circle  stroke="black" id="connector1pin" cx="5.04" cy="12.24" r="2.088" fill="black" stroke-width="2.16"/>
     <circle  stroke="black" id="connector2pin" cx="5.04" cy="19.44" r="2.088" fill="black" stroke-width="2.16"/>
     <circle  stroke="black" id="connector3pin" cx="5.04" cy="26.64" r="2.088" fill="black" stroke-width="2.16"/>
    </g>
   </g>
  </g>
 </g>
 <g partID="71330">
  <g transform="translate(82.7112,56.4162)">
   <g transform="matrix(0,-1,1,0,0,0)">
    <g  id="copper0">
     <circle  stroke="black" id="connector0pin" cx="5.04" cy="5.04" r="2.088" fill="black" stroke-width="2.16"/>
     <circle  stroke="black" id="connector1pin" cx="5.04" cy="12.24" r="2.088" fill="black" stroke-width="2.16"/>
     <circle  stroke="black" id="connector2pin" cx="5.04" cy="19.44" r="2.088" fill="black" stroke-width="2.16"/>
     <circle  stroke="black" id="connector3pin" cx="5.04" cy="26.64" r="2.088" fill="black" stroke-width="2.16"/>
    </g>
   </g>
  </g>
 </g>
 <g partID="70750">
  <g transform="translate(82.7112,85.2162)">
   <g transform="matrix(0,-1,1,0,0,0)">
    <g  id="copper0">
     <circle  stroke="black" id="connector0pin" cx="5.04" cy="5.04" r="2.088" fill="black" stroke-width="2.16"/>
     <circle  stroke="black" id="connector1pin" cx="5.04" cy="12.24" r="2.088" fill="black" stroke-width="2.16"/>
     <circle  stroke="black" id="connector2pin" cx="5.04" cy="19.44" r="2.088" fill="black" stroke-width="2.16"/>
     <circle  stroke="black" id="connector3pin" cx="5.04" cy="26.64" r="2.088" fill="black" stroke-width="2.16"/>
    </g>
   </g>
  </g>
 </g>
 <g partID="71350">
  <g transform="translate(82.7112,70.8162)">
   <g transform="matrix(0,-1,1,0,0,0)">
    <g  id="copper0">
     <circle  stroke="black" id="connector0pin" cx="5.04" cy="5.04" r="2.088" fill="black" stroke-width="2.16"/>
     <circle  stroke="black" id="connector1pin" cx="5.04" cy="12.24" r="2.088" fill="black" stroke-width="2.16"/>
     <circle  stroke="black" id="connector2pin" cx="5.04" cy="19.44" r="2.088" fill="black" stroke-width="2.16"/>
     <circle  stroke="black" id="connector3pin" cx="5.04" cy="26.64" r="2.088" fill="black" stroke-width="2.16"/>
    </g>
   </g>
  </g>
 </g>
 <g partID="83460">
  <g transform="translate(258.391,96.7362)">
   <g transform="matrix(0,1,-1,0,0,0)">
    <g  id="copper0">
     <circle  stroke="black" id="connector0pin" cx="5.04" cy="5.04" r="2.088" fill="black" stroke-width="2.16"/>
     <circle  stroke="black" id="connector1pin" cx="5.04" cy="12.24" r="2.088" fill="black" stroke-width="2.16"/>
     <circle  stroke="black" id="connector2pin" cx="5.04" cy="19.44" r="2.088" fill="black" stroke-width="2.16"/>
     <circle  stroke="black" id="connector3pin" cx="5.04" cy="26.64" r="2.088" fill="black" stroke-width="2.16"/>
     <circle  stroke="black" id="connector4pin" cx="5.04" cy="33.84" r="2.088" fill="black" stroke-width="2.16"/>
     <circle  stroke="black" id="connector5pin" cx="5.04" cy="41.04" r="2.088" fill="black" stroke-width="2.16"/>
     <circle  stroke="black" id="connector6pin" cx="5.04" cy="48.24" r="2.088" fill="black" stroke-width="2.16"/>
    </g>
   </g>
  </g>
 </g>
 <g partID="83810">
  <g transform="translate(258.391,111.136)">
   <g transform="matrix(0,1,-1,0,0,0)">
    <g  id="copper0">
     <circle  stroke="black" id="connector0pin" cx="5.04" cy="5.04" r="2.088" fill="black" stroke-width="2.16"/>
     <circle  stroke="black" id="connector1pin" cx="5.04" cy="12.24" r="2.088" fill="black" stroke-width="2.16"/>
     <circle  stroke="black" id="connector2pin" cx="5.04" cy="19.44" r="2.088" fill="black" stroke-width="2.16"/>
     <circle  stroke="black" id="connector3pin" cx="5.04" cy="26.64" r="2.088" fill="black" stroke-width="2.16"/>
     <circle  stroke="black" id="connector4pin" cx="5.04" cy="33.84" r="2.088" fill="black" stroke-width="2.16"/>
     <circle  stroke="black" id="connector5pin" cx="5.04" cy="41.04" r="2.088" fill="black" stroke-width="2.16"/>
     <circle  stroke="black" id="connector6pin" cx="5.04" cy="48.24" r="2.088" fill="black" stroke-width="2.16"/>
    </g>
   </g>
  </g>
 </g>
 <g partID="78200">
  <g transform="translate(258.391,82.3362)">
   <g transform="matrix(0,1,-1,0,0,0)">
    <g  id="copper0">
     <circle  stroke="black" id="connector0pin" cx="5.04" cy="5.04" r="2.088" fill="black" stroke-width="2.16"/>
     <circle  stroke="black" id="connector1pin" cx="5.04" cy="12.24" r="2.088" fill="black" stroke-width="2.16"/>
     <circle  stroke="black" id="connector2pin" cx="5.04" cy="19.44" r="2.088" fill="black" stroke-width="2.16"/>
     <circle  stroke="black" id="connector3pin" cx="5.04" cy="26.64" r="2.088" fill="black" stroke-width="2.16"/>
     <circle  stroke="black" id="connector4pin" cx="5.04" cy="33.84" r="2.088" fill="black" stroke-width="2.16"/>
     <circle  stroke="black" id="connector5pin" cx="5.04" cy="41.04" r="2.088" fill="black" stroke-width="2.16"/>
     <circle  stroke="black" id="connector6pin" cx="5.04" cy="48.24" r="2.088" fill="black" stroke-width="2.16"/>
    </g>
   </g>
  </g>
 </g>
 <g partID="73270">
  <g transform="translate(258.391,39.1362)">
   <g transform="matrix(0,1,-1,0,0,0)">
    <g  id="copper0">
     <circle  stroke="black" id="connector0pin" cx="5.04" cy="5.04" r="2.088" fill="black" stroke-width="2.16"/>
     <circle  stroke="black" id="connector1pin" cx="5.04" cy="12.24" r="2.088" fill="black" stroke-width="2.16"/>
     <circle  stroke="black" id="connector2pin" cx="5.04" cy="19.44" r="2.088" fill="black" stroke-width="2.16"/>
     <circle  stroke="black" id="connector3pin" cx="5.04" cy="26.64" r="2.088" fill="black" stroke-width="2.16"/>
     <circle  stroke="black" id="connector4pin" cx="5.04" cy="33.84" r="2.088" fill="black" stroke-width="2.16"/>
     <circle  stroke="black" id="connector5pin" cx="5.04" cy="41.04" r="2.088" fill="black" stroke-width="2.16"/>
     <circle  stroke="black" id="connector6pin" cx="5.04" cy="48.24" r="2.088" fill="black" stroke-width="2.16"/>
    </g>
   </g>
  </g>
 </g>
 <g partID="78020">
  <g transform="translate(258.391,67.9362)">
   <g transform="matrix(0,1,-1,0,0,0)">
    <g  id="copper0">
     <circle  stroke="black" id="connector0pin" cx="5.04" cy="5.04" r="2.088" fill="black" stroke-width="2.16"/>
     <circle  stroke="black" id="connector1pin" cx="5.04" cy="12.24" r="2.088" fill="black" stroke-width="2.16"/>
     <circle  stroke="black" id="connector2pin" cx="5.04" cy="19.44" r="2.088" fill="black" stroke-width="2.16"/>
     <circle  stroke="black" id="connector3pin" cx="5.04" cy="26.64" r="2.088" fill="black" stroke-width="2.16"/>
     <circle  stroke="black" id="connector4pin" cx="5.04" cy="33.84" r="2.088" fill="black" stroke-width="2.16"/>
     <circle  stroke="black" id="connector5pin" cx="5.04" cy="41.04" r="2.088" fill="black" stroke-width="2.16"/>
     <circle  stroke="black" id="connector6pin" cx="5.04" cy="48.24" r="2.088" fill="black" stroke-width="2.16"/>
    </g>
   </g>
  </g>
 </g>
 <g partID="75110">
  <g transform="translate(258.391,53.5362)">
   <g transform="matrix(0,1,-1,0,0,0)">
    <g  id="copper0">
     <circle  stroke="black" id="connector0pin" cx="5.04" cy="5.04" r="2.088" fill="black" stroke-width="2.16"/>
     <circle  stroke="black" id="connector1pin" cx="5.04" cy="12.24" r="2.088" fill="black" stroke-width="2.16"/>
     <circle  stroke="black" id="connector2pin" cx="5.04" cy="19.44" r="2.088" fill="black" stroke-width="2.16"/>
     <circle  stroke="black" id="connector3pin" cx="5.04" cy="26.64" r="2.088" fill="black" stroke-width="2.16"/>
     <circle  stroke="black" id="connector4pin" cx="5.04" cy="33.84" r="2.088" fill="black" stroke-width="2.16"/>
     <circle  stroke="black" id="connector5pin" cx="5.04" cy="41.04" r="2.088" fill="black" stroke-width="2.16"/>
     <circle  stroke="black" id="connector6pin" cx="5.04" cy="48.24" r="2.088" fill="black" stroke-width="2.16"/>
    </g>
   </g>
  </g>
 </g>
 <g partID="77100">
  <g transform="translate(198.199,61.0242)">
   <g  id="copper0">
    <circle  stroke="black" id="connector0pad" cx="4.752" cy="4.752" r="1.98" fill="black" stroke-width="2.16"/>
    <circle  stroke="black" id="connector1pad" cx="40.752" cy="4.752" r="1.98" fill="black" stroke-width="2.16"/>
   </g>
  </g>
 </g>
 <g partID="88110">
  <g transform="translate(198.199,89.8242)">
   <g  id="copper0">
    <circle  stroke="black" id="connector0pad" cx="4.752" cy="4.752" r="1.98" fill="black" stroke-width="2.16"/>
    <circle  stroke="black" id="connector1pad" cx="19.152" cy="4.752" r="1.98" fill="black" stroke-width="2.16"/>
   </g>
  </g>
 </g>
 <g partID="854708380">
  <g transform="translate(75.7992,97.0242)">
   <g  id="copper0">
    <circle  stroke="black" id="connector0pad" cx="4.752" cy="4.752" r="1.98" fill="black" stroke-width="2.16"/>
    <circle  stroke="black" id="connector1pad" cx="19.152" cy="4.752" r="1.98" fill="black" stroke-width="2.16"/>
   </g>
  </g>
 </g>
 <g partID="854728340">
  <g transform="translate(111.799,118.624)">
   <g  id="copper0">
    <circle  stroke="black" id="connector0pad" cx="4.752" cy="4.752" r="1.98" fill="black" stroke-width="2.16"/>
    <circle  stroke="black" id="connector1pad" cx="26.352" cy="4.752" r="1.98" fill="black" stroke-width="2.16"/>
   </g>
  </g>
 </g>
 <g partID="854732220">
  <g transform="translate(97.3992,125.824)">
   <g  id="copper0">
    <circle  stroke="black" id="connector0pad" cx="4.752" cy="4.752" r="1.98" fill="black" stroke-width="2.16"/>
    <circle  stroke="black" id="connector1pad" cx="33.552" cy="4.752" r="1.98" fill="black" stroke-width="2.16"/>
   </g>
  </g>
 </g>
 <g partID="854710500">
  <g transform="translate(147.511,17.5362)">
   <g  id="copper0">
    <circle  stroke="black" id="connector0pin" cx="5.04" cy="5.04" r="2.088" fill="black" stroke-width="2.16"/>
    <circle  stroke="black" id="connector1pin" cx="5.04" cy="12.24" r="2.088" fill="black" stroke-width="2.16"/>
    <circle  stroke="black" id="connector2pin" cx="5.04" cy="19.44" r="2.088" fill="black" stroke-width="2.16"/>
   </g>
  </g>
 </g>
 <g partID="854710460">
  <g transform="translate(140.311,17.5362)">
   <g  id="copper0">
    <circle  stroke="black" id="connector0pin" cx="5.04" cy="5.04" r="2.088" fill="black" stroke-width="2.16"/>
    <circle  stroke="black" id="connector1pin" cx="5.04" cy="12.24" r="2.088" fill="black" stroke-width="2.16"/>
    <circle  stroke="black" id="connector2pin" cx="5.04" cy="19.44" r="2.088" fill="black" stroke-width="2.16"/>
   </g>
  </g>
 </g>
 <g partID="854710440">
  <g transform="translate(125.911,17.5362)">
   <g  id="copper0">
    <circle  stroke="black" id="connector0pin" cx="5.04" cy="5.04" r="2.088" fill="black" stroke-width="2.16"/>
    <circle  stroke="black" id="connector1pin" cx="5.04" cy="12.24" r="2.088" fill="black" stroke-width="2.16"/>
    <circle  stroke="black" id="connector2pin" cx="5.04" cy="19.44" r="2.088" fill="black" stroke-width="2.16"/>
   </g>
  </g>
 </g>
 <g partID="854710420">
  <g transform="translate(133.111,17.5362)">
   <g  id="copper0">
    <circle  stroke="black" id="connector0pin" cx="5.04" cy="5.04" r="2.088" fill="black" stroke-width="2.16"/>
    <circle  stroke="black" id="connector1pin" cx="5.04" cy="12.24" r="2.088" fill="black" stroke-width="2.16"/>
    <circle  stroke="black" id="connector2pin" cx="5.04" cy="19.44" r="2.088" fill="black" stroke-width="2.16"/>
   </g>
  </g>
 </g>
 <g partID="854710330">
  <g transform="translate(161.911,17.5362)">
   <g  id="copper0">
    <circle  stroke="black" id="connector0pin" cx="5.04" cy="5.04" r="2.088" fill="black" stroke-width="2.16"/>
    <circle  stroke="black" id="connector1pin" cx="5.04" cy="12.24" r="2.088" fill="black" stroke-width="2.16"/>
    <circle  stroke="black" id="connector2pin" cx="5.04" cy="19.44" r="2.088" fill="black" stroke-width="2.16"/>
   </g>
  </g>
 </g>
 <g partID="854710520">
  <g transform="translate(154.711,17.5362)">
   <g  id="copper0">
    <circle  stroke="black" id="connector0pin" cx="5.04" cy="5.04" r="2.088" fill="black" stroke-width="2.16"/>
    <circle  stroke="black" id="connector1pin" cx="5.04" cy="12.24" r="2.088" fill="black" stroke-width="2.16"/>
    <circle  stroke="black" id="connector2pin" cx="5.04" cy="19.44" r="2.088" fill="black" stroke-width="2.16"/>
   </g>
  </g>
 </g>
 <g partID="854723020">
  <g transform="translate(97.3992,39.4242)">
   <g  id="copper0">
    <circle  stroke="black" id="connector0pad" cx="4.752" cy="4.752" r="1.98" fill="black" stroke-width="2.16"/>
    <circle  stroke="black" id="connector1pad" cx="19.152" cy="4.752" r="1.98" fill="black" stroke-width="2.16"/>
   </g>
  </g>
 </g>
 <g partID="854728000">
  <g transform="translate(183.511,111.136)">
   <g  id="copper0">
    <circle  stroke="black" id="connector0pin" cx="5.04" cy="5.04" r="2.088" fill="black" stroke-width="2.16"/>
    <circle  stroke="black" id="connector1pin" cx="5.04" cy="12.24" r="2.088" fill="black" stroke-width="2.16"/>
    <circle  stroke="black" id="connector2pin" cx="5.04" cy="19.44" r="2.088" fill="black" stroke-width="2.16"/>
   </g>
  </g>
 </g>
 <g partID="854725300">
  <g transform="translate(176.311,111.136)">
   <g  id="copper0">
    <circle  stroke="black" id="connector0pin" cx="5.04" cy="5.04" r="2.088" fill="black" stroke-width="2.16"/>
    <circle  stroke="black" id="connector1pin" cx="5.04" cy="12.24" r="2.088" fill="black" stroke-width="2.16"/>
    <circle  stroke="black" id="connector2pin" cx="5.04" cy="19.44" r="2.088" fill="black" stroke-width="2.16"/>
   </g>
  </g>
 </g>
 <g partID="854734030">
  <g transform="translate(190.711,111.136)">
   <g  id="copper0">
    <circle  stroke="black" id="connector0pin" cx="5.04" cy="5.04" r="2.088" fill="black" stroke-width="2.16"/>
    <circle  stroke="black" id="connector1pin" cx="5.04" cy="12.24" r="2.088" fill="black" stroke-width="2.16"/>
    <circle  stroke="black" id="connector2pin" cx="5.04" cy="19.44" r="2.088" fill="black" stroke-width="2.16"/>
   </g>
  </g>
 </g>
 <g partID="854725280">
  <g transform="translate(169.111,111.136)">
   <g  id="copper0">
    <circle  stroke="black" id="connector0pin" cx="5.04" cy="5.04" r="2.088" fill="black" stroke-width="2.16"/>
    <circle  stroke="black" id="connector1pin" cx="5.04" cy="12.24" r="2.088" fill="black" stroke-width="2.16"/>
    <circle  stroke="black" id="connector2pin" cx="5.04" cy="19.44" r="2.088" fill="black" stroke-width="2.16"/>
   </g>
  </g>
 </g>
 <g partID="854725260">
  <g transform="translate(161.911,111.136)">
   <g  id="copper0">
    <circle  stroke="black" id="connector0pin" cx="5.04" cy="5.04" r="2.088" fill="black" stroke-width="2.16"/>
    <circle  stroke="black" id="connector1pin" cx="5.04" cy="12.24" r="2.088" fill="black" stroke-width="2.16"/>
    <circle  stroke="black" id="connector2pin" cx="5.04" cy="19.44" r="2.088" fill="black" stroke-width="2.16"/>
   </g>
  </g>
 </g>
 <g partID="854725120">
  <g transform="translate(140.311,111.136)">
   <g  id="copper0">
    <circle  stroke="black" id="connector0pin" cx="5.04" cy="5.04" r="2.088" fill="black" stroke-width="2.16"/>
    <circle  stroke="black" id="connector1pin" cx="5.04" cy="12.24" r="2.088" fill="black" stroke-width="2.16"/>
    <circle  stroke="black" id="connector2pin" cx="5.04" cy="19.44" r="2.088" fill="black" stroke-width="2.16"/>
   </g>
  </g>
 </g>
 <g partID="854725240">
  <g transform="translate(154.711,111.136)">
   <g  id="copper0">
    <circle  stroke="black" id="connector0pin" cx="5.04" cy="5.04" r="2.088" fill="black" stroke-width="2.16"/>
    <circle  stroke="black" id="connector1pin" cx="5.04" cy="12.24" r="2.088" fill="black" stroke-width="2.16"/>
    <circle  stroke="black" id="connector2pin" cx="5.04" cy="19.44" r="2.088" fill="black" stroke-width="2.16"/>
   </g>
  </g>
 </g>
 <g partID="854725220">
  <g transform="translate(147.511,111.136)">
   <g  id="copper0">
    <circle  stroke="black" id="connector0pin" cx="5.04" cy="5.04" r="2.088" fill="black" stroke-width="2.16"/>
    <circle  stroke="black" id="connector1pin" cx="5.04" cy="12.24" r="2.088" fill="black" stroke-width="2.16"/>
    <circle  stroke="black" id="connector2pin" cx="5.04" cy="19.44" r="2.088" fill="black" stroke-width="2.16"/>
   </g>
  </g>
 </g>
</svg>
